<mxfile host="app.diagrams.net" modified="2021-06-16T15:11:21.681Z" agent="5.0 (Macintosh; Intel Mac OS X 10_15_7) AppleWebKit/537.36 (KHTML, like Gecko) Chrome/91.0.4472.101 Safari/537.36" etag="j42leZCORxHCbJPB63K-" version="14.7.10" type="github">
  <diagram id="8JIP0ViGIwgFuenbR_KO" name="Page-1">
    <mxGraphModel dx="1166" dy="639" grid="1" gridSize="10" guides="1" tooltips="1" connect="1" arrows="1" fold="1" page="1" pageScale="1" pageWidth="850" pageHeight="1100" math="0" shadow="0">
      <root>
        <mxCell id="0" />
        <mxCell id="1" parent="0" />
        <mxCell id="cQmzmXPSoFPuSWQVdKn9-8" value="" style="edgeStyle=orthogonalEdgeStyle;rounded=0;orthogonalLoop=1;jettySize=auto;html=1;endArrow=none;endFill=0;" parent="1" source="cQmzmXPSoFPuSWQVdKn9-1" target="cQmzmXPSoFPuSWQVdKn9-4" edge="1">
          <mxGeometry relative="1" as="geometry" />
        </mxCell>
        <mxCell id="cQmzmXPSoFPuSWQVdKn9-1" value="Test Runners" style="strokeWidth=2;html=1;shape=mxgraph.flowchart.multi-document;whiteSpace=wrap;" parent="1" vertex="1">
          <mxGeometry x="267" y="160" width="126" height="60" as="geometry" />
        </mxCell>
        <mxCell id="cQmzmXPSoFPuSWQVdKn9-7" value="" style="edgeStyle=orthogonalEdgeStyle;rounded=0;orthogonalLoop=1;jettySize=auto;html=1;endArrow=none;endFill=0;" parent="1" source="cQmzmXPSoFPuSWQVdKn9-4" target="cQmzmXPSoFPuSWQVdKn9-6" edge="1">
          <mxGeometry relative="1" as="geometry" />
        </mxCell>
        <mxCell id="cQmzmXPSoFPuSWQVdKn9-4" value="Cucumber" style="rounded=1;whiteSpace=wrap;html=1;absoluteArcSize=1;arcSize=14;strokeWidth=2;fillColor=#d5e8d4;strokeColor=#82b366;" parent="1" vertex="1">
          <mxGeometry x="264" y="270" width="132" height="50" as="geometry" />
        </mxCell>
        <mxCell id="cQmzmXPSoFPuSWQVdKn9-10" value="" style="edgeStyle=orthogonalEdgeStyle;rounded=0;orthogonalLoop=1;jettySize=auto;html=1;endArrow=none;endFill=0;" parent="1" source="cQmzmXPSoFPuSWQVdKn9-6" target="cQmzmXPSoFPuSWQVdKn9-9" edge="1">
          <mxGeometry relative="1" as="geometry" />
        </mxCell>
        <mxCell id="cQmzmXPSoFPuSWQVdKn9-6" value="Feature Files" style="strokeWidth=2;html=1;shape=mxgraph.flowchart.multi-document;whiteSpace=wrap;" parent="1" vertex="1">
          <mxGeometry x="265" y="370" width="130" height="60" as="geometry" />
        </mxCell>
        <mxCell id="cQmzmXPSoFPuSWQVdKn9-12" value="" style="edgeStyle=orthogonalEdgeStyle;rounded=0;orthogonalLoop=1;jettySize=auto;html=1;endArrow=none;endFill=0;" parent="1" source="cQmzmXPSoFPuSWQVdKn9-9" target="cQmzmXPSoFPuSWQVdKn9-11" edge="1">
          <mxGeometry relative="1" as="geometry" />
        </mxCell>
        <mxCell id="cQmzmXPSoFPuSWQVdKn9-47" style="edgeStyle=none;rounded=0;orthogonalLoop=1;jettySize=auto;html=1;entryX=0;entryY=0.5;entryDx=0;entryDy=0;entryPerimeter=0;endArrow=none;endFill=0;" parent="1" source="cQmzmXPSoFPuSWQVdKn9-9" target="cQmzmXPSoFPuSWQVdKn9-13" edge="1">
          <mxGeometry relative="1" as="geometry" />
        </mxCell>
        <mxCell id="cQmzmXPSoFPuSWQVdKn9-9" value="Step Definitions" style="strokeWidth=2;html=1;shape=mxgraph.flowchart.multi-document;whiteSpace=wrap;" parent="1" vertex="1">
          <mxGeometry x="265" y="480" width="130" height="60" as="geometry" />
        </mxCell>
        <mxCell id="cQmzmXPSoFPuSWQVdKn9-11" value="Page Objects" style="strokeWidth=2;html=1;shape=mxgraph.flowchart.multi-document;whiteSpace=wrap;" parent="1" vertex="1">
          <mxGeometry x="30" y="480" width="130" height="60" as="geometry" />
        </mxCell>
        <mxCell id="cQmzmXPSoFPuSWQVdKn9-13" value="Utils" style="strokeWidth=2;html=1;shape=mxgraph.flowchart.multi-document;whiteSpace=wrap;" parent="1" vertex="1">
          <mxGeometry x="658.5" y="480" width="133" height="60" as="geometry" />
        </mxCell>
        <mxCell id="cQmzmXPSoFPuSWQVdKn9-45" style="edgeStyle=none;rounded=0;orthogonalLoop=1;jettySize=auto;html=1;exitX=0;exitY=0.5;exitDx=0;exitDy=0;entryX=1;entryY=0.677;entryDx=0;entryDy=0;entryPerimeter=0;" parent="1" source="cQmzmXPSoFPuSWQVdKn9-20" target="cQmzmXPSoFPuSWQVdKn9-28" edge="1">
          <mxGeometry relative="1" as="geometry" />
        </mxCell>
        <mxCell id="cQmzmXPSoFPuSWQVdKn9-20" value="PicoContainer" style="rounded=1;whiteSpace=wrap;html=1;absoluteArcSize=1;arcSize=14;strokeWidth=2;fillColor=#d5e8d4;strokeColor=#82b366;" parent="1" vertex="1">
          <mxGeometry x="500" y="604" width="100" height="60" as="geometry" />
        </mxCell>
        <mxCell id="cQmzmXPSoFPuSWQVdKn9-23" value="MyPageObject" style="swimlane;fontStyle=1;align=center;verticalAlign=top;childLayout=stackLayout;horizontal=1;startSize=26;horizontalStack=0;resizeParent=1;resizeParentMax=0;resizeLast=0;collapsible=1;marginBottom=0;" parent="1" vertex="1">
          <mxGeometry x="10" y="590" width="160" height="86" as="geometry" />
        </mxCell>
        <mxCell id="cQmzmXPSoFPuSWQVdKn9-24" value="private WebDriver" style="text;strokeColor=none;fillColor=none;align=left;verticalAlign=top;spacingLeft=4;spacingRight=4;overflow=hidden;rotatable=0;points=[[0,0.5],[1,0.5]];portConstraint=eastwest;" parent="cQmzmXPSoFPuSWQVdKn9-23" vertex="1">
          <mxGeometry y="26" width="160" height="26" as="geometry" />
        </mxCell>
        <mxCell id="cQmzmXPSoFPuSWQVdKn9-25" value="" style="line;strokeWidth=1;fillColor=none;align=left;verticalAlign=middle;spacingTop=-1;spacingLeft=3;spacingRight=3;rotatable=0;labelPosition=right;points=[];portConstraint=eastwest;" parent="cQmzmXPSoFPuSWQVdKn9-23" vertex="1">
          <mxGeometry y="52" width="160" height="8" as="geometry" />
        </mxCell>
        <mxCell id="cQmzmXPSoFPuSWQVdKn9-26" value="MyPageObject(WebDriver)" style="text;strokeColor=none;fillColor=none;align=left;verticalAlign=top;spacingLeft=4;spacingRight=4;overflow=hidden;rotatable=0;points=[[0,0.5],[1,0.5]];portConstraint=eastwest;" parent="cQmzmXPSoFPuSWQVdKn9-23" vertex="1">
          <mxGeometry y="60" width="160" height="26" as="geometry" />
        </mxCell>
        <mxCell id="cQmzmXPSoFPuSWQVdKn9-27" value="ScenarioStepDefinition" style="swimlane;fontStyle=1;align=center;verticalAlign=top;childLayout=stackLayout;horizontal=1;startSize=26;horizontalStack=0;resizeParent=1;resizeParentMax=0;resizeLast=0;collapsible=1;marginBottom=0;" parent="1" vertex="1">
          <mxGeometry x="200" y="590" width="260" height="86" as="geometry" />
        </mxCell>
        <mxCell id="cQmzmXPSoFPuSWQVdKn9-28" value="private MyPageObject" style="text;strokeColor=none;fillColor=none;align=left;verticalAlign=top;spacingLeft=4;spacingRight=4;overflow=hidden;rotatable=0;points=[[0,0.5],[1,0.5]];portConstraint=eastwest;" parent="cQmzmXPSoFPuSWQVdKn9-27" vertex="1">
          <mxGeometry y="26" width="260" height="26" as="geometry" />
        </mxCell>
        <mxCell id="cQmzmXPSoFPuSWQVdKn9-29" value="" style="line;strokeWidth=1;fillColor=none;align=left;verticalAlign=middle;spacingTop=-1;spacingLeft=3;spacingRight=3;rotatable=0;labelPosition=right;points=[];portConstraint=eastwest;" parent="cQmzmXPSoFPuSWQVdKn9-27" vertex="1">
          <mxGeometry y="52" width="260" height="8" as="geometry" />
        </mxCell>
        <mxCell id="cQmzmXPSoFPuSWQVdKn9-30" value="ScenarioStepDefinition(WebDriverManager)" style="text;strokeColor=none;fillColor=none;align=left;verticalAlign=top;spacingLeft=4;spacingRight=4;overflow=hidden;rotatable=0;points=[[0,0.5],[1,0.5]];portConstraint=eastwest;" parent="cQmzmXPSoFPuSWQVdKn9-27" vertex="1">
          <mxGeometry y="60" width="260" height="26" as="geometry" />
        </mxCell>
        <mxCell id="cQmzmXPSoFPuSWQVdKn9-52" value="" style="edgeStyle=none;rounded=0;orthogonalLoop=1;jettySize=auto;html=1;exitX=0.5;exitY=1;exitDx=0;exitDy=0;" parent="1" source="cQmzmXPSoFPuSWQVdKn9-53" target="cQmzmXPSoFPuSWQVdKn9-48" edge="1">
          <mxGeometry relative="1" as="geometry" />
        </mxCell>
        <mxCell id="cQmzmXPSoFPuSWQVdKn9-54" style="edgeStyle=none;rounded=0;orthogonalLoop=1;jettySize=auto;html=1;entryX=0.5;entryY=0;entryDx=0;entryDy=0;endArrow=none;endFill=0;" parent="1" source="cQmzmXPSoFPuSWQVdKn9-31" target="cQmzmXPSoFPuSWQVdKn9-53" edge="1">
          <mxGeometry relative="1" as="geometry" />
        </mxCell>
        <mxCell id="cQmzmXPSoFPuSWQVdKn9-31" value="WebDriverManager" style="swimlane;fontStyle=1;align=center;verticalAlign=top;childLayout=stackLayout;horizontal=1;startSize=26;horizontalStack=0;resizeParent=1;resizeParentMax=0;resizeLast=0;collapsible=1;marginBottom=0;" parent="1" vertex="1">
          <mxGeometry x="635" y="595" width="180" height="86" as="geometry">
            <mxRectangle x="580" y="590" width="140" height="26" as="alternateBounds" />
          </mxGeometry>
        </mxCell>
        <mxCell id="cQmzmXPSoFPuSWQVdKn9-32" value="private WebDriver" style="text;strokeColor=none;fillColor=none;align=left;verticalAlign=top;spacingLeft=4;spacingRight=4;overflow=hidden;rotatable=0;points=[[0,0.5],[1,0.5]];portConstraint=eastwest;" parent="cQmzmXPSoFPuSWQVdKn9-31" vertex="1">
          <mxGeometry y="26" width="180" height="26" as="geometry" />
        </mxCell>
        <mxCell id="cQmzmXPSoFPuSWQVdKn9-33" value="" style="line;strokeWidth=1;fillColor=none;align=left;verticalAlign=middle;spacingTop=-1;spacingLeft=3;spacingRight=3;rotatable=0;labelPosition=right;points=[];portConstraint=eastwest;" parent="cQmzmXPSoFPuSWQVdKn9-31" vertex="1">
          <mxGeometry y="52" width="180" height="8" as="geometry" />
        </mxCell>
        <mxCell id="cQmzmXPSoFPuSWQVdKn9-34" value="WebDriver convenience methods" style="text;strokeColor=none;fillColor=none;align=left;verticalAlign=top;spacingLeft=4;spacingRight=4;overflow=hidden;rotatable=0;points=[[0,0.5],[1,0.5]];portConstraint=eastwest;" parent="cQmzmXPSoFPuSWQVdKn9-31" vertex="1">
          <mxGeometry y="60" width="180" height="26" as="geometry" />
        </mxCell>
        <mxCell id="cQmzmXPSoFPuSWQVdKn9-41" style="edgeStyle=orthogonalEdgeStyle;rounded=0;orthogonalLoop=1;jettySize=auto;html=1;exitX=0;exitY=0.5;exitDx=0;exitDy=0;entryX=1;entryY=0.5;entryDx=0;entryDy=0;endArrow=none;endFill=0;" parent="1" source="cQmzmXPSoFPuSWQVdKn9-28" target="cQmzmXPSoFPuSWQVdKn9-24" edge="1">
          <mxGeometry relative="1" as="geometry" />
        </mxCell>
        <mxCell id="cQmzmXPSoFPuSWQVdKn9-46" style="edgeStyle=none;rounded=0;orthogonalLoop=1;jettySize=auto;html=1;exitX=0;exitY=0.5;exitDx=0;exitDy=0;entryX=1;entryY=0.5;entryDx=0;entryDy=0;endArrow=none;endFill=0;" parent="1" source="cQmzmXPSoFPuSWQVdKn9-32" target="cQmzmXPSoFPuSWQVdKn9-20" edge="1">
          <mxGeometry relative="1" as="geometry">
            <Array as="points">
              <mxPoint x="620" y="634" />
            </Array>
          </mxGeometry>
        </mxCell>
        <mxCell id="cQmzmXPSoFPuSWQVdKn9-48" value="CucumberHooks" style="swimlane;fontStyle=1;align=center;verticalAlign=top;childLayout=stackLayout;horizontal=1;startSize=26;horizontalStack=0;resizeParent=1;resizeParentMax=0;resizeLast=0;collapsible=1;marginBottom=0;" parent="1" vertex="1">
          <mxGeometry x="610" y="830" width="230" height="86" as="geometry">
            <mxRectangle x="580" y="590" width="140" height="26" as="alternateBounds" />
          </mxGeometry>
        </mxCell>
        <mxCell id="cQmzmXPSoFPuSWQVdKn9-49" value="private WebDriver" style="text;strokeColor=none;fillColor=none;align=left;verticalAlign=top;spacingLeft=4;spacingRight=4;overflow=hidden;rotatable=0;points=[[0,0.5],[1,0.5]];portConstraint=eastwest;" parent="cQmzmXPSoFPuSWQVdKn9-48" vertex="1">
          <mxGeometry y="26" width="230" height="26" as="geometry" />
        </mxCell>
        <mxCell id="cQmzmXPSoFPuSWQVdKn9-50" value="" style="line;strokeWidth=1;fillColor=none;align=left;verticalAlign=middle;spacingTop=-1;spacingLeft=3;spacingRight=3;rotatable=0;labelPosition=right;points=[];portConstraint=eastwest;" parent="cQmzmXPSoFPuSWQVdKn9-48" vertex="1">
          <mxGeometry y="52" width="230" height="8" as="geometry" />
        </mxCell>
        <mxCell id="cQmzmXPSoFPuSWQVdKn9-51" value="CucumberHooks(WebDriverManager)" style="text;strokeColor=none;fillColor=none;align=left;verticalAlign=top;spacingLeft=4;spacingRight=4;overflow=hidden;rotatable=0;points=[[0,0.5],[1,0.5]];portConstraint=eastwest;" parent="cQmzmXPSoFPuSWQVdKn9-48" vertex="1">
          <mxGeometry y="60" width="230" height="26" as="geometry" />
        </mxCell>
        <mxCell id="cQmzmXPSoFPuSWQVdKn9-53" value="PicoContainer" style="rounded=1;whiteSpace=wrap;html=1;absoluteArcSize=1;arcSize=14;strokeWidth=2;fillColor=#d5e8d4;strokeColor=#82b366;" parent="1" vertex="1">
          <mxGeometry x="675" y="720" width="100" height="60" as="geometry" />
        </mxCell>
      </root>
    </mxGraphModel>
  </diagram>
</mxfile>
